<svg width="43" height="43" viewBox="0 0 43 43" fill="none" xmlns="http://www.w3.org/2000/svg">
<path fill-rule="evenodd" clip-rule="evenodd" d="M21.4203 41.5024C32.5112 41.5024 41.5021 32.5115 41.5021 21.4207C41.5021 10.3298 32.5112 1.33895 21.4203 1.33895C10.3295 1.33895 1.33862 10.3298 1.33862 21.4207C1.33862 32.5115 10.3295 41.5024 21.4203 41.5024ZM16.0526 38.5759C17.7476 39.1057 19.5506 39.3912 21.4203 39.3912C23.2777 39.3912 25.0692 39.1095 26.7544 38.5863V34.1934C26.755 33.4847 26.6143 32.7831 26.3406 32.1294C26.0669 31.4757 25.6657 30.8831 25.1605 30.3862C31.0595 29.3487 33.5278 25.7549 33.5278 21.4792C33.5278 19.404 32.8375 17.4837 31.482 15.9441C32.2478 13.5629 31.4545 11.5277 31.2738 11.064C31.2649 11.0413 31.2576 11.0224 31.2519 11.0074C28.9927 10.8024 26.6499 12.4842 26.1771 12.844C24.7839 12.4675 23.2025 12.2625 21.4286 12.2625C19.6631 12.2625 18.0858 12.4591 16.7052 12.8315C16.5086 12.6767 13.9816 10.7187 11.5509 10.9362C11.5463 10.948 11.5407 10.9623 11.534 10.9789C11.3596 11.4173 10.5236 13.5181 11.3459 15.9567C10.0071 17.4921 9.32519 19.3957 9.32519 21.4666C9.32519 25.734 11.7768 29.3236 17.6591 30.3779C16.9562 31.0598 16.4458 31.9384 16.2074 32.9215C15.1154 33.1935 12.9608 33.4696 11.8563 31.8338C10.3293 29.5788 9.01141 28.7462 7.71865 29.4114C7.43167 29.7426 7.80281 29.9922 8.33055 30.3471C8.80296 30.6648 9.40086 31.0668 9.76448 31.6874C9.8202 31.7792 9.8727 31.9381 9.93952 32.1404C10.3293 33.32 11.2063 35.9745 16.0526 35.4067V38.5759Z" fill="#928A97"/>
</svg>
