<svg width="42" height="42" viewBox="0 0 42 42" fill="none" xmlns="http://www.w3.org/2000/svg">
<path d="M20.5637 0C9.20653 0 0 9.20653 0 20.5637C0 31.9208 9.20653 41.1274 20.5637 41.1274C31.9208 41.1274 41.1274 31.9208 41.1274 20.5637C41.1274 9.20653 31.9208 0 20.5637 0ZM15.5299 29.0869H11.3657V15.6862H15.5299V29.0869ZM13.4221 14.0411C12.1069 14.0411 11.2565 13.1093 11.2565 11.9569C11.2565 10.7809 12.1326 9.87699 13.4756 9.87699C14.8187 9.87699 15.6412 10.7809 15.667 11.9569C15.667 13.1093 14.8187 14.0411 13.4221 14.0411ZM30.7384 29.0869H26.5743V21.6604C26.5743 19.9318 25.9702 18.7579 24.4644 18.7579C23.3141 18.7579 22.6308 19.5526 22.3287 20.3173C22.2173 20.5894 22.1895 20.975 22.1895 21.3584V29.0848H18.0232V19.9596C18.0232 18.2867 17.9697 16.8879 17.914 15.6841H21.5319L21.7225 17.5455H21.8061C22.3544 16.6716 23.6975 15.3821 25.9445 15.3821C28.6842 15.3821 30.7384 17.2178 30.7384 21.1635V29.0869Z" fill="#928A97"/>
</svg>
